<?xml version="1.0" standalone="no"?>
<!DOCTYPE svg PUBLIC "-//W3C//DTD SVG 20010904//EN"
 "http://www.w3.org/TR/2001/REC-SVG-20010904/DTD/svg10.dtd">
<svg version="1.0" xmlns="http://www.w3.org/2000/svg"
 width="500.000000pt" height="500.000000pt" viewBox="0 0 500.000000 500.000000"
 preserveAspectRatio="xMidYMid meet">
<metadata>
Created by potrace 1.14, written by Peter Selinger 2001-2017
</metadata>
<g transform="translate(0.000000,500.000000) scale(0.100000,-0.100000)"
fill="#000000" stroke="none">
<path d="M0 2500 l0 -2500 2500 0 2500 0 0 2500 0 2500 -2500 0 -2500 0 0
-2500z m2801 2325 c265 -40 498 -112 717 -220 554 -275 977 -760 1167 -1339
131 -397 152 -831 60 -1240 -77 -344 -274 -736 -489 -975 l-31 -34 93 7 c83 5
93 4 90 -10 -4 -20 -116 -67 -212 -89 -63 -14 -76 -22 -136 -79 -261 -246
-625 -446 -976 -536 -344 -89 -751 -96 -1096 -19 -830 183 -1515 849 -1722
1672 -243 965 136 1950 964 2502 277 185 595 304 955 359 127 20 487 20 616 1z"/>
<path d="M2306 4700 c-125 -11 -327 -52 -454 -91 -473 -145 -896 -469 -1182
-904 -76 -116 -183 -342 -229 -480 -179 -548 -139 -1127 114 -1640 120 -243
248 -419 441 -604 335 -324 749 -524 1224 -592 106 -15 438 -16 548 -1 122 17
303 59 422 98 208 69 474 215 665 364 62 49 67 55 45 58 -50 5 -166 36 -230
59 -153 57 -280 144 -421 290 -178 184 -314 416 -443 758 l-64 170 -372 0
-372 0 -84 -198 c-46 -109 -86 -213 -89 -231 -14 -71 49 -146 123 -146 25 0
32 -4 32 -20 0 -20 -7 -20 -330 -20 -323 0 -330 0 -330 20 0 17 7 20 43 20 60
0 135 39 187 97 40 44 87 146 397 853 l352 803 -50 98 c-140 273 -308 392
-507 359 -37 -6 -79 -13 -94 -16 -52 -11 -31 22 31 50 136 61 243 86 365 86
250 0 447 -128 632 -410 95 -144 147 -262 419 -934 279 -689 310 -762 401
-934 158 -301 321 -491 490 -573 l83 -40 34 38 c303 336 492 750 547 1198 14
115 15 384 0 500 -112 925 -782 1670 -1682 1869 -64 15 -151 31 -193 36 -115
15 -358 20 -469 10z"/>
<path d="M2378 3100 c-187 -446 -318 -761 -318 -765 0 -3 142 -5 316 -5 297 0
316 1 309 18 -56 143 -218 576 -250 667 l-43 120 -14 -35z"/>
</g>
</svg>
