<?xml version="1.0" standalone="no"?>
<!DOCTYPE svg PUBLIC "-//W3C//DTD SVG 20010904//EN"
 "http://www.w3.org/TR/2001/REC-SVG-20010904/DTD/svg10.dtd">
<svg version="1.0" xmlns="http://www.w3.org/2000/svg"
 width="500.000000pt" height="500.000000pt" viewBox="0 0 500.000000 500.000000"
 preserveAspectRatio="xMidYMid meet">
<metadata>
Created by potrace 1.14, written by Peter Selinger 2001-2017
</metadata>
<g transform="translate(0.000000,500.000000) scale(0.100000,-0.100000)"
fill="#000000" stroke="none">
<path d="M2255 4850 c-372 -42 -751 -178 -1050 -377 -565 -374 -935 -952
-1041 -1623 -26 -160 -26 -527 0 -690 122 -784 598 -1433 1301 -1775 294 -143
558 -213 893 -235 638 -42 1262 182 1748 629 54 50 68 58 137 74 102 24 211
71 215 92 3 15 -2 17 -30 12 -18 -4 -62 -9 -98 -13 -74 -8 -75 -16 13 92 138
169 290 437 371 657 141 380 177 829 101 1240 -151 817 -727 1498 -1511 1785
-253 93 -469 132 -759 137 -115 2 -246 0 -290 -5z m451 -141 c885 -86 1632
-688 1903 -1533 172 -536 126 -1152 -121 -1651 -85 -169 -222 -373 -334 -493
-49 -53 -49 -53 -84 -41 -181 64 -385 294 -560 631 -93 179 -106 210 -411 961
-256 630 -321 777 -402 906 -127 204 -278 343 -443 408 -65 26 -79 28 -219 27
-134 0 -159 -3 -233 -27 -117 -37 -202 -77 -202 -95 0 -10 7 -13 28 -8 157 34
224 29 330 -21 107 -51 247 -221 314 -383 l21 -51 -353 -807 c-194 -444 -362
-820 -373 -837 -57 -85 -154 -145 -234 -145 -36 0 -43 -3 -43 -20 0 -20 7 -20
340 -20 333 0 340 0 340 20 0 16 -7 20 -30 20 -39 0 -82 22 -109 56 -39 49
-30 93 68 326 l89 213 379 3 378 2 19 -52 c149 -427 296 -694 495 -900 189
-198 383 -309 628 -360 l63 -13 -63 -50 c-173 -138 -428 -283 -627 -355 -241
-88 -483 -130 -759 -130 -280 0 -507 38 -756 128 -365 132 -700 366 -946 661
-633 758 -691 1837 -143 2656 173 260 429 503 705 671 268 164 626 279 954
307 92 8 289 6 391 -4z m-162 -2016 c80 -216 146 -395 146 -398 0 -3 -144 -5
-321 -5 -191 0 -319 4 -317 9 36 101 334 798 339 793 3 -4 72 -183 153 -399z"/>
</g>
</svg>
